<svg width="29" height="28" viewBox="0 0 29 28" fill="none" xmlns="http://www.w3.org/2000/svg">
<path d="M17.8182 13.3745H28.2259C28.3035 13.3742 28.3792 13.3515 28.4437 13.3094C28.5081 13.2672 28.5584 13.2074 28.5881 13.1375C28.6178 13.0677 28.6258 12.9908 28.6109 12.9165C28.596 12.8422 28.5589 12.7739 28.5044 12.7201L26.1832 10.4578C26.1431 10.4186 26.0948 10.3884 26.0416 10.3692C25.9884 10.35 25.9316 10.3423 25.875 10.3465L25.6869 10.361L19.4195 10.9461L23.105 8.06686C23.1492 8.033 23.1854 7.99032 23.2113 7.94167C23.2372 7.89303 23.2521 7.83954 23.2551 7.78481C23.258 7.73008 23.2489 7.67537 23.2284 7.62435C23.2079 7.57333 23.1764 7.52718 23.1361 7.489L21.4444 5.84642C21.4051 5.80861 21.3582 5.77924 21.3065 5.7602C21.2549 5.74116 21.1998 5.73287 21.1447 5.73587C21.0895 5.73886 21.0357 5.75307 20.9865 5.77759C20.9374 5.8021 20.8941 5.83637 20.8593 5.8782L17.9115 9.47395L18.504 3.36306L18.5188 3.18103C18.5235 3.12586 18.5157 3.07036 18.496 3.01844C18.4763 2.96652 18.4452 2.91945 18.4048 2.88054L16.091 0.61099C16.0358 0.557793 15.9657 0.521667 15.8896 0.507144C15.8134 0.492621 15.7346 0.500346 15.6629 0.529352C15.5912 0.558357 15.53 0.607351 15.4867 0.67019C15.4435 0.733029 15.4203 0.806916 15.4199 0.882585V11.0327L17.8182 13.3745Z" fill="#004952"/>
<path d="M0.392294 13.3745H10.8L13.1983 11.0356V0.882585C13.1979 0.806916 13.1747 0.733029 13.1315 0.67019C13.0882 0.607351 13.0269 0.558357 12.9553 0.529352C12.8836 0.500346 12.8048 0.492621 12.7286 0.507144C12.6525 0.521667 12.5824 0.557793 12.5272 0.61099L10.2075 2.87477C10.166 2.91314 10.1338 2.95998 10.113 3.01192C10.0923 3.06387 10.0836 3.11964 10.0875 3.17525L10.1023 3.35728L10.6948 9.46817L7.74703 5.8782C7.71228 5.83521 7.66855 5.79992 7.61873 5.77468C7.56892 5.74945 7.51417 5.73484 7.45812 5.73183C7.40207 5.72883 7.34601 5.73749 7.29366 5.75725C7.24131 5.777 7.19387 5.8074 7.1545 5.84642L5.48358 7.49622C5.44326 7.5344 5.41179 7.58055 5.39127 7.63157C5.37075 7.68259 5.36166 7.73731 5.3646 7.79204C5.36755 7.84677 5.38247 7.90025 5.40835 7.9489C5.43424 7.99754 5.47049 8.04022 5.51468 8.07408L9.19872 10.9461L2.92979 10.361L2.74166 10.3465C2.68511 10.3423 2.62829 10.35 2.5751 10.3692C2.52191 10.3884 2.47362 10.4186 2.43355 10.4578L0.113806 12.7201C0.0592591 12.7739 0.0222173 12.8422 0.00732559 12.9165C-0.00756615 12.9908 0.000355162 13.0677 0.0300965 13.1375C0.0598378 13.2074 0.110075 13.2672 0.174509 13.3094C0.238942 13.3515 0.314704 13.3742 0.392294 13.3745Z" fill="#004952"/>
<path d="M28.2529 15.5416H0.490066C0.412287 15.5416 0.336241 15.564 0.271577 15.6062C0.206913 15.6483 0.156547 15.7083 0.126869 15.7784C0.0971904 15.8485 0.0895387 15.9256 0.104884 16C0.12023 16.0744 0.157881 16.1426 0.21306 16.1961L2.52391 18.4497C2.56398 18.4889 2.61227 18.5191 2.66546 18.5383C2.71865 18.5575 2.77548 18.5652 2.83203 18.561L3.01867 18.5465L13.3183 17.5858L12.622 26.8316C12.618 26.8841 12.625 26.9369 12.6428 26.9867C12.6607 27.0364 12.6888 27.082 12.7255 27.1207C12.7622 27.1593 12.8067 27.1902 12.8562 27.2113C12.9057 27.2324 12.9591 27.2433 13.0131 27.2433H15.4277C15.4817 27.2433 15.5351 27.2324 15.5846 27.2113C15.6341 27.1902 15.6786 27.1593 15.7153 27.1207C15.752 27.082 15.7801 27.0364 15.7979 26.9867C15.8157 26.9369 15.8228 26.8841 15.8187 26.8316L15.1225 17.5858L25.7243 18.548L25.9109 18.5624C25.9675 18.5667 26.0243 18.5589 26.0775 18.5397C26.1307 18.5205 26.179 18.4903 26.219 18.4512L28.5299 16.1975C28.5856 16.1441 28.6237 16.0758 28.6393 16.0011C28.655 15.9265 28.6474 15.8491 28.6177 15.7787C28.588 15.7082 28.5374 15.6481 28.4724 15.6059C28.4074 15.5636 28.331 15.5413 28.2529 15.5416Z" fill="#004952"/>
</svg>
